<svg width="48" height="48" viewBox="0 0 48 48" fill="none" xmlns="http://www.w3.org/2000/svg">
<path d="M24.0003 0.666748C11.1203 0.666748 0.666992 11.1201 0.666992 24.0001C0.666992 36.8801 11.1203 47.3334 24.0003 47.3334C36.8803 47.3334 47.3337 36.8801 47.3337 24.0001C47.3337 11.1201 36.8803 0.666748 24.0003 0.666748ZM17.677 34.0101L9.30033 25.6334C8.39033 24.7234 8.39033 23.2534 9.30033 22.3434C10.2103 21.4334 11.6803 21.4334 12.5903 22.3434L19.3337 29.0634L35.387 13.0101C36.297 12.1001 37.767 12.1001 38.677 13.0101C39.587 13.9201 39.587 15.3901 38.677 16.3001L20.967 34.0101C20.0803 34.9201 18.587 34.9201 17.677 34.0101Z" fill="#08CF65"/>
</svg>
